name C:\Users\u0101727\Documents\MyRepositories\upper-imu-dc\Results\main_tracking\Case_68\kinematics.mot
datacolumns 10
datarows 23
range 0.50000000 0.72000000
endheader 
time	clav_prot	clav_elev	scapula_abduction	scapula_elevation	scapula_upward_rot	scapula_winging	plane_elv	shoulder_elv	axial_rot	
          0.50000000	        -24.41655991	         -0.01669562	         -9.85452604	         -3.04314026	         22.35761794	          1.74987322	        -12.80567771	         22.62097098	         34.65466857	
          0.51000000	        -23.63420763	          0.25872335	         -9.60081393	         -3.08670552	         22.76808019	          1.61962993	        -12.53931472	         23.05190534	         34.53485837	
          0.52000000	        -23.70913763	          0.30674741	         -9.50268228	         -3.13959015	         23.12709645	          1.51005856	        -12.22440091	         23.45846763	         34.40496366	
          0.53000000	        -23.78252599	          0.33061290	         -9.41516969	         -3.20136786	         23.45572717	          1.41427731	        -11.89115492	         23.82728699	         34.23461112	
          0.54000000	        -23.85738870	          0.33604822	         -9.34424602	         -3.26957601	         23.75460097	          1.33139560	        -11.55270069	         24.16225313	         34.03305448	
          0.55000000	        -23.93244438	          0.32980046	         -9.28913806	         -3.33967005	         24.02453438	          1.25960389	        -11.21144147	         24.46312903	         33.82004918	
          0.56000000	        -23.99943210	          0.31790038	         -9.23803250	         -3.40629718	         24.26504690	          1.19731934	        -10.85832396	         24.73139869	         33.59390706	
          0.57000000	        -24.05914198	          0.30449919	         -9.19380550	         -3.46652188	         24.47597047	          1.14360692	        -10.48361691	         24.97088487	         33.33933414	
          0.58000000	        -24.10628542	          0.28487706	         -9.14774375	         -3.52315970	         24.65436012	          1.10066518	        -10.10278751	         25.19533809	         33.06103980	
          0.59000000	        -24.13839687	          0.26528976	         -9.08738769	         -3.57478850	         24.81497914	          1.06292336	         -9.72748629	         25.39140415	         32.78679705	
          0.60000000	        -24.15271286	          0.24275116	         -9.00605020	         -3.62397269	         24.95969138	          1.03031507	         -9.35034017	         25.56326542	         32.49112244	
          0.61000000	        -24.16310375	          0.21875867	         -8.92727631	         -3.67085547	         25.09000809	          1.00205110	         -8.95582476	         25.71066006	         32.16921857	
          0.62000000	        -24.17905565	          0.19406983	         -8.86746776	         -3.71544218	         25.20631273	          0.97787145	         -8.53948847	         25.83597780	         31.81976309	
          0.63000000	        -24.21509431	          0.16953702	         -8.85303721	         -3.75785892	         25.30722990	          0.95812051	         -8.09731984	         25.94330526	         31.44490361	
          0.64000000	        -24.28088528	          0.14557189	         -8.90474073	         -3.79690868	         25.38889277	          0.94400873	         -7.62282589	         26.03832712	         31.04305057	
          0.65000000	        -24.29636685	          0.11046055	         -8.88056382	         -3.83695989	         25.44721236	          0.93785553	         -7.11377855	         26.12885157	         30.62101533	
          0.66000000	        -24.82350816	          0.11963525	         -9.78347605	         -3.86806779	         25.46967729	          0.94082313	         -6.55653759	         26.22755389	         30.16014276	
          0.67000000	        -24.46593328	          0.05530824	         -9.17662829	         -3.88248794	         25.42062319	          0.96313730	         -5.90205238	         26.36517185	         29.64343430	
          0.68000000	        -24.41940161	          0.00980021	         -9.13525113	         -3.89646900	         25.34077473	          0.99569709	         -5.20133901	         26.51214258	         29.11236998	
          0.69000000	        -24.29005639	         -0.04874534	         -8.90738254	         -3.92720492	         25.31887259	          1.01335140	         -4.50609563	         26.59051063	         28.54181770	
          0.70000000	        -24.39152034	         -0.11342481	         -9.06275065	         -3.98078625	         25.32104026	          1.03096300	         -3.79399555	         26.64358395	         27.93127967	
          0.71000000	        -24.53438217	         -0.19017083	         -9.28956811	         -4.04535684	         25.31640194	          1.05498506	         -3.03993982	         26.69862330	         27.29064514	
          0.72000000	        -24.63873524	         -0.28323826	         -9.45004650	         -4.11760891	         25.30339910	          1.08507439	         -2.25695237	         26.76107402	         26.63620238	
